# xmcd
#
# Track frame offsets: 
#        150
#        21679
#        47082
#        64252
#        87412
#        106337
#        130634
#        155662
#        171797
#        193414
#        213129
#        231927
#
# Disc length: 3378 seconds
#
# Revision: 2
# Processed by: cddbd v1.5.2PL0 Copyright (c) Steve Scherf et al.
# Submitted via: ExactAudioCopy v0.95b4
#
DISCID=ac0d300c
DTITLE=Little Tempo - Fireblender
DYEAR=2004
DGENRE=Reggae
TTITLE0=The Spearhead
TTITLE1=Boggyman Walk
TTITLE2=Astral Hop
TTITLE3=Fireblender
TTITLE4=Space Mambo
TTITLE5=Chase Your Choice
TTITLE6=Splash Metal
TTITLE7=Mammoth Fuzz
TTITLE8=Safari Skank
TTITLE9=Starliner Express
TTITLE10=One Bully Drive
TTITLE11=Love
EXTD=
EXTT0=
EXTT1=
EXTT2=
EXTT3=
EXTT4=
EXTT5=
EXTT6=
EXTT7=
EXTT8=
EXTT9=
EXTT10=
EXTT11=
PLAYORDER=
